<?xml version="1.0" encoding="iso-8859-1"?>
<!-- Generator: Adobe Illustrator 19.0.0, SVG Export Plug-In . SVG Version: 6.00 Build 0)  -->
<svg version="1.1" id="Layer_1" xmlns="http://www.w3.org/2000/svg" xmlns:xlink="http://www.w3.org/1999/xlink" x="0px" y="0px"
	 viewBox="0 0 512 512" style="enable-background:new 0 0 512 512;" xml:space="preserve">
<circle style="fill:#935635;" cx="256" cy="256" r="256"/>
<path style="fill:#804000;" d="M264.39,511.848c111.668-3.598,205.259-78.7,236.487-181.022L322.989,152.938L217.338,164.14
	l23.43,23.43l-80.227,23.797L205.174,256l-21.576,12.641l-14.505,5.889l33.102,33.102l-95.778,46.24L264.39,511.848z"/>
<ellipse style="fill:#CFDBE6;" cx="227.073" cy="336.265" rx="129.448" ry="48.545"/>
<path style="fill:#B8C9D9;" d="M356.521,336.262c0-23.156-43.246-42.512-101.093-47.361v94.722
	C313.275,378.771,356.521,359.415,356.521,336.262z"/>
<ellipse style="fill:#E6F3FF;" cx="263.43" cy="260.896" rx="101.073" ry="37.904"/>
<g>
	<path style="fill:#CFDBE6;" d="M263.425,222.994c-2.694,0-5.356,0.052-7.999,0.129v75.548c2.641,0.078,5.303,0.129,7.999,0.129
		c55.822,0,101.076-16.97,101.076-37.904S319.247,222.994,263.425,222.994z"/>
	<ellipse style="fill:#CFDBE6;" cx="240.761" cy="202.8" rx="83.385" ry="31.272"/>
</g>
<path style="fill:#B8C9D9;" d="M324.16,202.805c0-15.394-29.672-28.181-68.732-30.78v61.561
	C294.488,230.986,324.16,218.2,324.16,202.805z"/>
<ellipse style="fill:#E6F3FF;" cx="269.136" cy="157.186" rx="55.02" ry="20.632"/>
<path style="fill:#CFDBE6;" d="M269.14,136.549c-4.734,0-9.33,0.224-13.714,0.646v39.972c4.384,0.422,8.978,0.646,13.714,0.646
	c30.386,0,55.02-9.237,55.02-20.633C324.16,145.786,299.525,136.549,269.14,136.549z"/>
<g>
</g>
<g>
</g>
<g>
</g>
<g>
</g>
<g>
</g>
<g>
</g>
<g>
</g>
<g>
</g>
<g>
</g>
<g>
</g>
<g>
</g>
<g>
</g>
<g>
</g>
<g>
</g>
<g>
</g>
</svg>
