<?xml version="1.0" encoding="iso-8859-1"?>
<!-- Generator: Adobe Illustrator 19.0.0, SVG Export Plug-In . SVG Version: 6.00 Build 0)  -->
<svg version="1.1" id="Layer_1" xmlns="http://www.w3.org/2000/svg" xmlns:xlink="http://www.w3.org/1999/xlink" x="0px" y="0px"
	 viewBox="0 0 512 512" style="enable-background:new 0 0 512 512;" xml:space="preserve">
<circle style="fill:#273B7A;" cx="256" cy="256" r="256"/>
<path style="fill:#121149;" d="M511.054,277.957L346.689,113.593L282.96,215.73L180.824,113.593l-2.972,7.366l76.857,131.017
	l-17.67,37.352l-37.926,28.029l-39.726,27.105l2.376,52.896l113.897,113.895C400.599,501.769,500.464,402.589,511.054,277.957z"/>
<path style="fill:#C9C9C9;" d="M214.74,329.814L214.74,329.814c-6.765-3.994-9.009-12.714-5.017-19.478l114.566-194.034
	c3.994-6.763,12.714-9.009,19.477-5.017l0,0c6.765,3.994,9.009,12.714,5.017,19.478L234.217,324.798
	C230.224,331.56,221.503,333.807,214.74,329.814z"/>
<path style="fill:#FFFFFF;" d="M292.466,329.814L292.466,329.814c6.765-3.994,9.009-12.714,5.017-19.478L182.915,116.302
	c-3.994-6.763-12.714-9.009-19.477-5.017l0,0c-6.765,3.994-9.009,12.714-5.017,19.478l114.566,194.034
	C276.982,331.56,285.701,333.807,292.466,329.814z"/>
<path style="fill:#FF7F4F;" d="M199.111,413.036c-29.231,0-53.01-23.78-53.01-53.01s23.78-53.01,53.01-53.01
	s53.01,23.78,53.01,53.01S228.342,413.036,199.111,413.036z M199.111,327.702c-17.823,0-32.323,14.5-32.323,32.323
	c0,17.823,14.5,32.323,32.323,32.323s32.323-14.5,32.323-32.323C231.434,342.202,216.935,327.702,199.111,327.702z"/>
<path style="fill:#FFC61B;" d="M312.889,413.036c-29.231,0-53.01-23.78-53.01-53.01s23.78-53.01,53.01-53.01
	s53.01,23.78,53.01,53.01S342.119,413.036,312.889,413.036z M312.889,327.702c-17.823,0-32.323,14.5-32.323,32.323
	c0,17.823,14.5,32.323,32.323,32.323c17.823,0,32.323-14.5,32.323-32.323C345.212,342.202,330.712,327.702,312.889,327.702z"/>
<circle style="fill:#366695;" cx="254.707" cy="264.62" r="8.62"/>
<g>
</g>
<g>
</g>
<g>
</g>
<g>
</g>
<g>
</g>
<g>
</g>
<g>
</g>
<g>
</g>
<g>
</g>
<g>
</g>
<g>
</g>
<g>
</g>
<g>
</g>
<g>
</g>
<g>
</g>
</svg>
