<?xml version="1.0" encoding="iso-8859-1"?>
<!-- Generator: Adobe Illustrator 19.0.0, SVG Export Plug-In . SVG Version: 6.00 Build 0)  -->
<svg version="1.1" id="Capa_1" xmlns="http://www.w3.org/2000/svg" xmlns:xlink="http://www.w3.org/1999/xlink" x="0px" y="0px"
	 viewBox="0 0 512.001 512.001" style="enable-background:new 0 0 512.001 512.001;" xml:space="preserve">
<path style="fill:#F4D44E;" d="M482.41,236.852c-11.66-22.229-35.289-24.135-57.432-14.022
	c-35.041,15.996-68.755,46.973-66.582,44.992c-10.665,7.964-25.383-2.031-21.914-14.881
	c24.516-90.816,44.512-165.686,44.485-165.581c4.627-17.27-4.804-35.523-21.841-40.949c-16.413-5.227-33.748,3.041-40.489,18.148
	l6.08-22.691c4.734-17.671-5.849-36.001-23.519-40.737l0,0c-17.671-4.734-36.002,5.849-40.737,23.519l-53.365,206.76
	c-1.671,6.347-10.627,6.5-12.511,0.212L138.121,46.886c-5.254-17.523-23.891-27.561-41.413-22.307l0,0
	C79.185,29.834,69.146,48.47,74.401,65.993l21.872,72.941l-6.01-20.043c-5.254-17.523-23.89-27.561-41.413-22.307l0,0
	c-17.522,5.254-27.561,23.891-22.307,41.413l40.362,136.279c16.161,54.564-12.029,107.278,30.226,163.715
	c12.569,16.787,11.695,32.622,11.695,45.711c0,15.628,12.669,28.297,28.297,28.297H293.47c15.511,0,28.086-12.575,28.086-28.086
	v-21.43c0-4.194,1.952-8.142,5.267-10.712c11.564-8.965,38.597-32.71,44.764-67.86c1.263-7.199,3.386-14.233,6.735-20.729
	c22.591-43.809,81.198-81.64,82.461-82.551C483.909,263.946,493.124,257.277,482.41,236.852z"/>
<g>
	<path style="fill:#E8C842;" d="M83.442,96.143L83.442,96.143l12.831,42.792l29.286,101.596c2.611,9.06,12.095,14.266,21.14,11.606
		l0,0c8.284-2.437,13.01-11.143,10.54-19.417l-28-93.785l-16.213-54.068l0,0l-5.66-18.875c-4.51-15.04,2.252-30.892,15.338-38.407
		c-7.64-4.35-16.965-5.715-26-3.006l0,0C79.182,29.833,69.144,48.47,74.399,65.992L83.442,96.143z"/>
	<path style="fill:#E8C842;" d="M141.794,483.703c0-13.09,0.874-28.924-11.695-45.711c-42.257-56.438-14.066-109.151-30.226-163.715
		L59.511,137.999c-4.511-15.04,2.252-30.892,15.338-38.407c-7.64-4.351-16.965-5.715-26-3.006l0,0
		c-17.523,5.254-27.561,23.891-22.307,41.413l40.362,136.279c16.161,54.564-12.029,107.278,30.226,163.715
		c12.569,16.787,11.695,32.622,11.695,45.711c0,15.628,12.669,28.297,28.297,28.297h32.967
		C154.464,512,141.794,499.331,141.794,483.703z"/>
	<path style="fill:#E8C842;" d="M301.198,1.13L301.198,1.13c-17.671-4.735-36.002,5.848-40.737,23.519l-44.029,170.588l0,0
		l-9.335,36.171c-0.897,3.405-3.888,5.009-6.76,4.81l-0.002,0.015c0,0,33.303,20.074,40.195-6.628l52.899-204.957
		c2.385-8.899,8.22-15.998,15.681-20.251C306.676,3,304.03,1.889,301.198,1.13z"/>
	<path style="fill:#E8C842;" d="M365.524,49.242c-2.842-1.642-5.754-2.773-8.874-3.51l0,0c-15.65-3.694-31.609,4.476-38.012,18.825
		l0,0l0,0l-47.224,167.126c-2.292,8.112,2.191,16.593,10.185,19.269l0,0c8.222,2.751,17.077-1.908,19.469-10.241l50.539-176.155
		C354.546,57.966,359.505,52.677,365.524,49.242z"/>
	<path style="fill:#E8C842;" d="M424.978,222.83c-14.144,6.457-28.055,15.348-39.491,23.532l-0.001-0.004
		c-5.57,3.986-10.989,8.116-16.392,12.458l0,0c-7.345,5.918-11.505,9.742-10.697,9.005c-4.905,3.662-10.662,3.52-15.118,1.056
		c0,0,13.844,25.383,48.086-1.056c-3.128,2.851,40.866-36.818,73.69-47.794C453.32,214.877,438.858,216.491,424.978,222.83z"/>
</g>
<g>
</g>
<g>
</g>
<g>
</g>
<g>
</g>
<g>
</g>
<g>
</g>
<g>
</g>
<g>
</g>
<g>
</g>
<g>
</g>
<g>
</g>
<g>
</g>
<g>
</g>
<g>
</g>
<g>
</g>
</svg>
